<svg xmlns="http://www.w3.org/2000/svg" viewBox="0 0 812.21 290.12"><defs><style>.cls-1{fill:#3d4095;}.cls-2{fill:#00afef;}.cls-3{fill:#fff212;}</style></defs><g id="Layer_2" data-name="Layer 2"><g id="Layer_1-2" data-name="Layer 1"><path class="cls-1" d="M36.2,155.75H51l-1.09,6.58L37.29,217.18l-3.84,17L32.91,238v6L34,249l3.29,5.49,4.39,2.74,4.94,1.1,6.58-.55,6-2.2,5.48-3.29L68,249.53l3.84-5.48,2.2-4.39,9.32-38.39.55-.55h31.26l-.55,5.49-4.94,23.58-1.64,6-.55,3.84v5.48l1.65,6,3.83,4.38,5.49,2.2,2.74.55h4.94l6.58-1.65,6-3.84,3.84-3.84,3.84-6,2.74-6,15.36-74.59,1.64-6.58h64.17l-2.74,13.71-3.84,17h32.35l-2.74,14.26L236.92,278.6,234.72,289l-.54,1.1H201.27l.55-4.94,14.81-68,6-27.43.55-3.29L193,187l-11,49.36-3.84,11-4.39,9.32-5.48,8.23-6,7.13L155.75,277l-8.22,4.94-9.33,4.39L128.88,289l-6.58,1.1h-9.87l-8.23-1.65-8.77-3.29-7.68-4.94-4.94-4.38L79,278.05l-7.13,4.39-8.22,3.84L54.29,289l-7.13,1.1H35.65l-8.23-1.65-8.23-3.29-5.48-3.84-3.29-2.74-4.39-6-2.74-5.49L1.1,260,0,253.37V239.66L2.19,227.6l15.36-70.2.55-1.1Z"/><path class="cls-1" d="M652.62,158.49h17.55l9.32,1.65,9.33,3.29,7.13,4.39,5.48,4.93,3.84,4.39,4.39,7.68,3.29,9.87,1.64,9.32v15.36L713,226l-3.29,5.48-3.29,2.75-3.84,1.64-2.74.55H643.3l.55-2.74,3.84-7.68,6-6.58,4.39-3.84,8.22-4.39,7.13-2.19,6-1.1,6-.55-1.1-5.48-3.29-5.48-4.39-3.3-6.58-2.74-9.87-1.09-9.87,1.09L641.11,193l-8.78,4.39-6,3.84-6.58,6-4.94,7.13-3.29,7.13-1.64,8.78v6.58l1.64,7.68,2.74,5.48,2.2,2.74,5.48,3.29,6.58,1.65,69.1,1.1,1.1.54-.55,4.94-4.93,25.23H614.78L606,286.82l-8.78-4.38-6.58-4.94L585.17,272l-3.84-6L578,258.86l-2.2-9.88V233.63l2.2-11.52,3.84-11.52,4.38-9.32,4.94-7.68,3.84-4.93,4.93-5.49,3.84-3.84,7.13-5.48,8.23-4.94,9.32-4.38,9.87-3.29,10.42-2.2Z"/><path class="cls-1" d="M443.67,155.75h30.17l-.55,6L460.67,226.5v12.61l2.2,7.13,3.29,4.39,3.84,3.29,6.58,2.74,6,1.1H493l9.32-2.2,8.78-3.83,7.13-4.94,6.58-6.58,4.39-7.13,3.84-8.78,1.64-6.58V209.5l-2.19-7.13-3.29-4.94-3.84-3.29-5.49-2.74-7.13-1.65-5.48-.54-15.36-.55.55-4.94L497.42,158l7.68-.55h17.55l8.77,1.09,8.78,2.75,8.77,4.38,7.13,5.49,4.39,4.93,3.84,6,2.74,7.13,1.64,7.67v14.81l-1.64,9.87-3.29,11-4.39,9.87L555,250.08l-4.93,6.58-4.94,5.49L538,269.28l-9.87,7.12-13.71,7.13-8.78,3.29-8.77,1.65-5.48.55H476.58l-8.78-1.1-11-3.29-8.23-4.39-6.58-6-3.84-4.39-3.84-6.58-3.29-9.87L430,241.31l.55-14.26,2.19-14.81,10.42-55.94Z"/><path class="cls-1" d="M383.35,100.36h.55l-.55,6L379,130l-.55.54-26.32,1.1-9.33,1.65-6.58,3.29-3.84,3.84L329.05,147l-2.19,8.22h46.62l-2.2,12.62-3.29,17-.55,1.1-6,.54-41.68.55-17.55,85-3.84,17.55L266,289l1.1-7.13,19.74-94.33.55-1.1H256.11l.55-4.93,5.49-25.23.54-.55,30.72-.55,2.19-10.42,2.74-7.13,3.84-7.67,4.94-6.59,6-6.58,5.48-4.38,8.23-4.94,7.68-3.29,11.51-2.74,6.59-.55Z"/><path class="cls-1" d="M779.86,158h7.67l11,1.09,13.71,2.74-.55,4.94-6,29.62-.55,1.64-11-4.39L785.89,192H781.5l-7.13,2.19L770.53,198l-2.74,6-17,72.39-2.74,11.52L715.14,289l-.55-1.1,12.07-54.29L737.08,187l3.84-8.77,4.39-5.49,4.93-4.93,7.13-4.39,6.58-2.74,9.87-2.2Z"/><path class="cls-2" d="M421.74,0l10.42,2.74,12.06,4.39,12.62,6,9.87,6,8.22,6,7.13,6,6.58,6,7.68,8.23,5.49,7.13,6.58,9.87,5.48,9.87,4.94,11,4.93,14.81,2.74,12.61,1.65,13.16v8.23l-29.61-.55-2.2-17-2.74-11.52L489.19,91l-6.58-12.62-4.39-6.58-5.48-7.13-6.58-7.13L459,51l-9.87-7.13-9.87-5.48-8.23-3.84L417.9,30.16l-2.2-.55.55-6,4.94-23Z"/><path class="cls-1" d="M388.83,155.2h31.26l-2.74,14.26-24.68,119-.55.55H359.76l6.59-31.26,17-79,4.93-23Z"/><path class="cls-2" d="M410.77,51.55l8.22,2.2,8.78,3.83L436,62l7.67,5.49L450.8,74l3.84,3.84,6,7.67,4.94,8.23L470,103.1l2.74,8.23,2.19,9.87.55,4.94v5.48H445.87l-2.2-12.06-3.29-8.78-3.84-7.13-4.38-5.48-2.75-3.29-6-4.94-7.13-4.39-7.13-3.29-4.38-1.64.54-5.49,4.94-23Z"/><path class="cls-3" d="M399.8,101.46l3.84.55,7.13,3.84,6.58,6,3.84,6,2.74,6.58,1.1,6.58-1.1.55-30.16-.55.55-4.38Z"/></g></g></svg>